<svg width="64" height="64" xmlns="http://www.w3.org/2000/svg">

 <g>
  <title>background</title>
  <rect fill="none" id="canvas_background" height="402" width="582" y="-1" x="-1"/>
 </g>
 <g>
  <title>Layer 1</title>
  <path fill="#0c2399" id="svg_2" d="m32,17c-8.271,0 -15,6.729 -15,15s6.729,15 15,15s15,-6.729 15,-15s-6.729,-15 -15,-15zm0,28c-3.675,0 -6.992,-1.54 -9.359,-4l18.718,0c-2.367,2.46 -5.684,4 -9.359,4zm-1.497,-14.419c-0.941,-0.548 -1.503,-1.513 -1.503,-2.581l0,-2c0,-0.838 0.355,-1.645 0.974,-2.212c0.626,-0.575 1.438,-0.851 2.298,-0.776c1.529,0.133 2.728,1.536 2.728,3.196l0,1.792c0,1.068 -0.562,2.033 -1.503,2.581l-0.497,0.289l0,2.884l4.84,1.383c1.272,0.363 2.16,1.541 2.16,2.863l0,1l-16,0l0,-1c0,-1.322 0.888,-2.5 2.16,-2.863l4.84,-1.383l0,-2.884l-0.497,-0.289zm11.497,9.714l0,-2.295c0,-2.21 -1.484,-4.179 -3.61,-4.786l-3.39,-0.968l0,-0.266c1.246,-0.939 2,-2.416 2,-3.979l0,-1.792c0,-2.688 -2.001,-4.966 -4.556,-5.188c-1.401,-0.125 -2.793,0.35 -3.822,1.294c-1.031,0.944 -1.622,2.288 -1.622,3.685l0,2c0,1.563 0.754,3.041 2,3.979l0,0.266l-3.39,0.969c-2.126,0.607 -3.61,2.576 -3.61,4.786l0,2.295c-1.872,-2.253 -3,-5.144 -3,-8.295c0,-7.168 5.832,-13 13,-13s13,5.832 13,13c0,3.151 -1.128,6.042 -3,8.295z"/>
  <path fill="#0c2399" id="svg_3" d="m54,7l-9.184,0c-0.414,-1.161 -1.514,-2 -2.816,-2l-3.383,0c-1.296,-2.471 -3.818,-4 -6.617,-4c-2.799,0 -5.321,1.528 -6.617,4l-3.383,0c-1.302,0 -2.402,0.839 -2.816,2l-9.184,0c-1.654,0 -3,1.346 -3,3l0,50c0,1.654 1.346,3 3,3l44,0c1.654,0 3,-1.346 3,-3l0,-50c0,-1.654 -1.346,-3 -3,-3zm-3,42l-8,0l0,8l-30,0l0,-44l6,0l0,2l26,0l0,-2l6,0l0,36zm-1.414,2l-4.586,4.586l0,-4.586l4.586,0zm-28.586,-43c0,-0.551 0.449,-1 1,-1l4.618,0l0.487,-0.975c0.934,-1.866 2.809,-3.025 4.895,-3.025s3.961,1.159 4.895,3.024l0.487,0.976l4.618,0c0.551,0 1,0.449 1,1l0,5l-22,0l0,-5zm34,52c0,0.551 -0.449,1 -1,1l-44,0c-0.551,0 -1,-0.449 -1,-1l0,-50c0,-0.551 0.449,-1 1,-1l9,0l0,2l-8,0l0,48l33.414,0l8.586,-8.586l0,-39.414l-8,0l0,-2l9,0c0.551,0 1,0.449 1,1l0,50z"/>
  <rect fill="#0c2399" id="svg_4" y="49" x="39" width="2" height="2"/>
  <rect fill="#0c2399" id="svg_5" y="49" x="15" width="22" height="2"/>
  <rect fill="#0c2399" id="svg_6" y="53" x="15" width="22" height="2"/>
  <rect fill="#0c2399" id="svg_7" y="53" x="39" width="2" height="2"/>
  <path fill="#0c2399" id="svg_8" d="m32,5c-1.654,0 -3,1.346 -3,3s1.346,3 3,3s3,-1.346 3,-3s-1.346,-3 -3,-3zm0,4c-0.551,0 -1,-0.449 -1,-1s0.449,-1 1,-1s1,0.449 1,1s-0.449,1 -1,1z"/>
  <rect fill="#0c2399" id="svg_9" y="9" x="24" width="2" height="2"/>
  <rect fill="#0c2399" id="svg_10" y="9" x="38" width="2" height="2"/>
 </g>
</svg>