<svg width="48" height="48" xmlns="http://www.w3.org/2000/svg">

 <g>
  <title>background</title>
  <rect fill="none" id="canvas_background" height="402" width="582" y="-1" x="-1"/>
 </g>
 <g>
  <title>Layer 1</title>
  <path fill="#0c2399" id="svg_1" fill-rule="evenodd" d="m47,40l0,0c0,2.762 -2.238,5 -5,5l0,0l-36,0l0,0c-2.762,0 -5,-2.238 -5,-5l0,-29c0,-2.209 1.791,-4 4,-4l0,0l20.171,0l8.099,-2.934c0.513,-0.187 1.081,0.078 1.268,0.589l0.853,2.345l3.609,0c2.209,0 4,1.791 4,4l0,2l0,0c2.209,0 4,1.791 4,4l0,23zm-42,-31l0,0c-1.104,0 -2,0.896 -2,2s0.896,2 2,2l3.445,0l0,0l0.189,0c0.013,-0.005 0.021,-0.016 0.034,-0.021l10.982,-3.979l-14.65,0zm29.078,0.181l-1.062,-2.924l-0.001,0l0,0l-2.051,0.743l0.003,0l-5.514,2l-0.01,0l-11.039,4l21.062,0l-1.388,-3.819zm6.922,1.819c0,-1.104 -0.896,-2 -2,-2l-2.883,0l1.454,4l3.429,0l0,0l0,-2zm2,4l-38,0l0,0c-0.732,0 -1.41,-0.211 -2,-0.555l0,25.555c0,1.657 1.344,3 3,3l36,0c1.657,0 3,-1.343 3,-3l0,-7l-4,0c-2.209,0 -4,-1.791 -4,-4s1.791,-4 4,-4l4,0l0,-8c0,-1.104 -0.896,-2 -2,-2zm2,16l0,-4l-4,0c-1.104,0 -2,0.896 -2,2s0.896,2 2,2l4,0zm-4,-3l2,0l0,2l-2,0l0,-2z" clip-rule="evenodd"/>
 </g>
</svg>